<svg width="614" height="614" viewBox="0 0 614 614" fill="none" xmlns="http://www.w3.org/2000/svg">
<path d="M409.333 204.667H439.003C465.614 204.667 487.783 225.065 489.993 251.584L507.049 456.251C509.535 486.082 485.993 511.667 456.059 511.667H157.941C128.007 511.667 104.465 486.082 106.951 456.251L124.007 251.584C126.217 225.065 148.386 204.667 174.997 204.667H204.667M409.333 204.667H204.667M409.333 204.667L409.333 179.083C409.333 151.943 398.552 125.914 379.361 106.723C360.169 87.5315 334.141 76.75 307 76.75C279.86 76.75 253.831 87.5315 234.639 106.723C215.448 125.914 204.667 151.943 204.667 179.083L204.667 204.667M409.333 204.667L409.333 307M204.667 204.667L204.667 307" stroke="#020202" stroke-opacity="0.5" stroke-width="2" stroke-linecap="round" stroke-linejoin="round"/>
</svg>
