<svg width="55" height="97" viewBox="0 0 94 97" fill="none" xmlns="http://www.w3.org/2000/svg">
<path fill-rule="evenodd" clip-rule="evenodd" d="M15.6718 0H78.304C86.9183 0 93.9753 7.2225 93.9753 16.0412V80.1524C93.9753 88.9708 86.9184 96.1936 78.304 96.1936H15.6718C7.05594 96.1936 0 88.9708 0 80.1524V16.0412C0 7.2225 7.05594 0 15.6718 0Z" fill="url(#paint0_linear_326_360)"/>
<path fill-rule="evenodd" clip-rule="evenodd" d="M68.8552 48.0975C68.8552 35.7327 59.0671 25.7135 46.9876 25.7135C34.9079 25.7135 25.1203 35.7327 25.1203 48.0975C25.1203 60.4616 34.9079 70.481 46.9876 70.481C59.0671 70.4808 68.8552 60.4616 68.8552 48.0975ZM68.4412 22.6715C66.4892 22.6715 64.9224 24.291 64.9224 26.2734C64.9224 28.2715 66.4892 29.8758 68.4412 29.8758C70.3783 29.8758 71.9599 28.2715 71.9599 26.2734C71.9601 24.291 70.3784 22.6715 68.4412 22.6715ZM29.1125 17.4958H64.8631C71.4873 17.4958 76.8836 23.0349 76.8836 29.7995V66.3939C76.8836 73.1744 71.4874 78.6992 64.8631 78.6992H29.1125C22.5033 78.6992 17.0916 73.1746 17.0916 66.3939V29.7995C17.0916 23.0349 22.5035 17.4958 29.1125 17.4958ZM64.8631 13.394H29.1125C20.2999 13.394 13.085 20.7793 13.085 29.7993V66.3937C13.085 75.4296 20.2999 82.8001 29.1125 82.8001H64.8631C73.6901 82.8001 80.8901 75.4296 80.8901 66.3937V29.7995C80.8901 20.7793 73.6901 13.394 64.8631 13.394ZM29.6591 48.0975C29.6591 38.305 37.4214 30.3594 46.9876 30.3594C56.5538 30.3594 64.3161 38.305 64.3161 48.0975C64.3161 57.8895 56.5538 65.834 46.9876 65.834C37.4214 65.834 29.6591 57.8895 29.6591 48.0975Z" fill="white"/>
<defs>
<linearGradient id="paint0_linear_326_360" x1="78.4643" y1="77.2858" x2="12.8098" y2="19.1789" gradientUnits="userSpaceOnUse">
<stop stop-color="#FEC053"/>
<stop offset="0.3273" stop-color="#F2203E"/>
<stop offset="0.6485" stop-color="#B729A8"/>
<stop offset="1" stop-color="#5342D6"/>
</linearGradient>
</defs>
</svg>
